<mxfile host="Electron" modified="2024-04-19T15:08:26.408Z" agent="Mozilla/5.0 (Windows NT 10.0; Win64; x64) AppleWebKit/537.36 (KHTML, like Gecko) draw.io/24.0.4 Chrome/120.0.6099.109 Electron/28.1.0 Safari/537.36" etag="sEBKo-oSWTYtg47r6VyL" version="24.0.4" type="device">
  <diagram name="Página-1" id="r4GVxxchFWbB2l8E2sAq">
    <mxGraphModel dx="1434" dy="836" grid="1" gridSize="10" guides="1" tooltips="1" connect="1" arrows="1" fold="1" page="1" pageScale="1" pageWidth="827" pageHeight="1169" math="0" shadow="0">
      <root>
        <mxCell id="0" />
        <mxCell id="1" parent="0" />
        <mxCell id="hL7pSaCEQYWKdNEANjCm-2" value="Login" style="verticalLabelPosition=bottom;verticalAlign=top;html=1;shape=mxgraph.basic.rect;fillColor2=none;strokeWidth=1;size=20;indent=5;" parent="1" vertex="1">
          <mxGeometry x="20" y="310" width="120" height="260" as="geometry" />
        </mxCell>
        <mxCell id="hL7pSaCEQYWKdNEANjCm-9" style="edgeStyle=orthogonalEdgeStyle;rounded=0;orthogonalLoop=1;jettySize=auto;html=1;" parent="1" source="hL7pSaCEQYWKdNEANjCm-3" target="hL7pSaCEQYWKdNEANjCm-4" edge="1">
          <mxGeometry relative="1" as="geometry" />
        </mxCell>
        <mxCell id="hL7pSaCEQYWKdNEANjCm-3" value="Home após login" style="verticalLabelPosition=bottom;verticalAlign=top;html=1;shape=mxgraph.basic.rect;fillColor2=none;strokeWidth=1;size=20;indent=5;" parent="1" vertex="1">
          <mxGeometry x="180" y="310" width="120" height="260" as="geometry" />
        </mxCell>
        <mxCell id="hL7pSaCEQYWKdNEANjCm-4" value="Página de home lista de presença com&amp;nbsp; historico" style="verticalLabelPosition=bottom;verticalAlign=top;html=1;shape=mxgraph.basic.rect;fillColor2=none;strokeWidth=1;size=20;indent=5;" parent="1" vertex="1">
          <mxGeometry x="450" y="40" width="120" height="260" as="geometry" />
        </mxCell>
        <mxCell id="hL7pSaCEQYWKdNEANjCm-5" style="edgeStyle=orthogonalEdgeStyle;rounded=0;orthogonalLoop=1;jettySize=auto;html=1;entryX=-0.017;entryY=0.5;entryDx=0;entryDy=0;entryPerimeter=0;" parent="1" source="hL7pSaCEQYWKdNEANjCm-2" target="hL7pSaCEQYWKdNEANjCm-3" edge="1">
          <mxGeometry relative="1" as="geometry" />
        </mxCell>
        <mxCell id="hL7pSaCEQYWKdNEANjCm-6" value="Página ChatBotEuroData" style="verticalLabelPosition=bottom;verticalAlign=top;html=1;shape=mxgraph.basic.rect;fillColor2=none;strokeWidth=1;size=20;indent=5;" parent="1" vertex="1">
          <mxGeometry x="450" y="460" width="120" height="260" as="geometry" />
        </mxCell>
        <mxCell id="hL7pSaCEQYWKdNEANjCm-13" value="Página de marcar presença" style="verticalLabelPosition=bottom;verticalAlign=top;html=1;shape=mxgraph.basic.rect;fillColor2=none;strokeWidth=1;size=20;indent=5;" parent="1" vertex="1">
          <mxGeometry x="680" y="40" width="120" height="260" as="geometry" />
        </mxCell>
        <mxCell id="hL7pSaCEQYWKdNEANjCm-14" style="edgeStyle=orthogonalEdgeStyle;rounded=0;orthogonalLoop=1;jettySize=auto;html=1;exitX=0.983;exitY=0.238;exitDx=0;exitDy=0;exitPerimeter=0;entryX=-0.019;entryY=0.241;entryDx=0;entryDy=0;entryPerimeter=0;" parent="1" source="hL7pSaCEQYWKdNEANjCm-4" target="hL7pSaCEQYWKdNEANjCm-13" edge="1">
          <mxGeometry relative="1" as="geometry">
            <mxPoint x="760" y="102" as="targetPoint" />
          </mxGeometry>
        </mxCell>
        <mxCell id="hL7pSaCEQYWKdNEANjCm-15" style="edgeStyle=orthogonalEdgeStyle;rounded=0;orthogonalLoop=1;jettySize=auto;html=1;entryX=0;entryY=0.502;entryDx=0;entryDy=0;entryPerimeter=0;" parent="1" source="hL7pSaCEQYWKdNEANjCm-4" target="hL7pSaCEQYWKdNEANjCm-13" edge="1">
          <mxGeometry relative="1" as="geometry" />
        </mxCell>
        <mxCell id="hL7pSaCEQYWKdNEANjCm-16" value="QR code scan" style="text;html=1;align=center;verticalAlign=middle;resizable=0;points=[];autosize=1;strokeColor=none;fillColor=none;" parent="1" vertex="1">
          <mxGeometry x="570" y="150" width="100" height="30" as="geometry" />
        </mxCell>
        <mxCell id="hL7pSaCEQYWKdNEANjCm-17" value="Código da sala" style="text;html=1;align=center;verticalAlign=middle;resizable=0;points=[];autosize=1;strokeColor=none;fillColor=none;" parent="1" vertex="1">
          <mxGeometry x="570" y="79" width="100" height="30" as="geometry" />
        </mxCell>
        <mxCell id="hL7pSaCEQYWKdNEANjCm-19" style="edgeStyle=orthogonalEdgeStyle;rounded=0;orthogonalLoop=1;jettySize=auto;html=1;entryX=-0.01;entryY=0.243;entryDx=0;entryDy=0;entryPerimeter=0;exitX=1.017;exitY=0.819;exitDx=0;exitDy=0;exitPerimeter=0;" parent="1" source="hL7pSaCEQYWKdNEANjCm-3" target="hL7pSaCEQYWKdNEANjCm-6" edge="1">
          <mxGeometry relative="1" as="geometry">
            <mxPoint x="346.04" y="510" as="sourcePoint" />
            <mxPoint x="470.00000000000006" y="727.94" as="targetPoint" />
          </mxGeometry>
        </mxCell>
        <mxCell id="hL7pSaCEQYWKdNEANjCm-21" value="Página Alteração de informações do usuario" style="verticalLabelPosition=bottom;verticalAlign=top;html=1;shape=mxgraph.basic.rect;fillColor2=none;strokeWidth=1;size=20;indent=5;" parent="1" vertex="1">
          <mxGeometry x="80" y="640" width="120" height="260" as="geometry" />
        </mxCell>
        <mxCell id="hL7pSaCEQYWKdNEANjCm-22" style="edgeStyle=orthogonalEdgeStyle;rounded=0;orthogonalLoop=1;jettySize=auto;html=1;entryX=0.496;entryY=-0.015;entryDx=0;entryDy=0;entryPerimeter=0;" parent="1" source="hL7pSaCEQYWKdNEANjCm-3" target="hL7pSaCEQYWKdNEANjCm-21" edge="1">
          <mxGeometry relative="1" as="geometry" />
        </mxCell>
        <mxCell id="hL7pSaCEQYWKdNEANjCm-24" style="edgeStyle=orthogonalEdgeStyle;rounded=0;orthogonalLoop=1;jettySize=auto;html=1;entryX=0.467;entryY=0;entryDx=0;entryDy=0;entryPerimeter=0;exitX=0.467;exitY=1.019;exitDx=0;exitDy=0;exitPerimeter=0;" parent="1" source="hL7pSaCEQYWKdNEANjCm-13" target="hL7pSaCEQYWKdNEANjCm-25" edge="1">
          <mxGeometry relative="1" as="geometry">
            <mxPoint x="998.9200000000001" y="220.63999999999987" as="targetPoint" />
          </mxGeometry>
        </mxCell>
        <mxCell id="hL7pSaCEQYWKdNEANjCm-25" value="Página de Confirmada" style="verticalLabelPosition=bottom;verticalAlign=top;html=1;shape=mxgraph.basic.rect;fillColor2=none;strokeWidth=1;size=20;indent=5;" parent="1" vertex="1">
          <mxGeometry x="680" y="370" width="120" height="260" as="geometry" />
        </mxCell>
        <mxCell id="hL7pSaCEQYWKdNEANjCm-29" value="Página Alteração de senha" style="verticalLabelPosition=bottom;verticalAlign=top;html=1;shape=mxgraph.basic.rect;fillColor2=none;strokeWidth=1;size=20;indent=5;" parent="1" vertex="1">
          <mxGeometry x="280" y="590" width="120" height="260" as="geometry" />
        </mxCell>
        <mxCell id="hL7pSaCEQYWKdNEANjCm-30" style="edgeStyle=orthogonalEdgeStyle;rounded=0;orthogonalLoop=1;jettySize=auto;html=1;entryX=-0.012;entryY=0.525;entryDx=0;entryDy=0;entryPerimeter=0;" parent="1" source="hL7pSaCEQYWKdNEANjCm-21" target="hL7pSaCEQYWKdNEANjCm-29" edge="1">
          <mxGeometry relative="1" as="geometry">
            <Array as="points">
              <mxPoint x="240" y="727" />
            </Array>
          </mxGeometry>
        </mxCell>
        <mxCell id="hL7pSaCEQYWKdNEANjCm-31" value="Página Preferências do app" style="verticalLabelPosition=bottom;verticalAlign=top;html=1;shape=mxgraph.basic.rect;fillColor2=none;strokeWidth=1;size=20;indent=5;" parent="1" vertex="1">
          <mxGeometry x="280" y="880" width="120" height="260" as="geometry" />
        </mxCell>
        <mxCell id="hL7pSaCEQYWKdNEANjCm-32" style="edgeStyle=orthogonalEdgeStyle;rounded=0;orthogonalLoop=1;jettySize=auto;html=1;exitX=0.725;exitY=1.008;exitDx=0;exitDy=0;exitPerimeter=0;" parent="1" source="hL7pSaCEQYWKdNEANjCm-21" target="hL7pSaCEQYWKdNEANjCm-31" edge="1">
          <mxGeometry relative="1" as="geometry">
            <Array as="points">
              <mxPoint x="167" y="1019" />
            </Array>
          </mxGeometry>
        </mxCell>
        <mxCell id="hL7pSaCEQYWKdNEANjCm-33" value="&lt;font style=&quot;font-size: 48px;&quot;&gt;APP&lt;br&gt;Usuário Eurofarama&lt;/font&gt;&lt;div&gt;&lt;font style=&quot;font-size: 48px;&quot;&gt;&amp;nbsp;comum&lt;/font&gt;&lt;/div&gt;" style="text;html=1;align=center;verticalAlign=middle;resizable=0;points=[];autosize=1;strokeColor=none;fillColor=none;" parent="1" vertex="1">
          <mxGeometry y="40" width="450" height="190" as="geometry" />
        </mxCell>
      </root>
    </mxGraphModel>
  </diagram>
</mxfile>
